<svg width="15" height="16" viewBox="0 0 15 16" fill="none" xmlns="http://www.w3.org/2000/svg">
<path id="Pages" d="M7.58708 7.62939e-06C8.11833 7.62939e-06 8.58708 0.468758 8.58708 1.00001V1.56251C10.8371 1.93751 12.5871 3.90626 12.5871 6.25001V7.31251C12.5871 8.71876 13.0558 10.0938 13.9308 11.2188L14.3996 11.7813C14.5871 12.0313 14.6183 12.3438 14.4933 12.5938C14.3683 12.8438 14.1183 13 13.8371 13H1.33708C1.02458 13 0.774585 12.8438 0.649585 12.5938C0.524585 12.3438 0.555835 12.0313 0.743335 11.7813L1.21208 11.2188C2.08709 10.0938 2.58709 8.71876 2.58709 7.31251V6.25001C2.58709 3.90626 4.30583 1.93751 6.58708 1.56251V1.00001C6.58708 0.468758 7.02458 7.62939e-06 7.58708 7.62939e-06ZM7.58708 3.00001H7.33708C5.52458 3.00001 4.08709 4.46876 4.08709 6.25001V7.31251C4.08709 8.81251 3.64959 10.25 2.83709 11.5H12.3058C11.4933 10.25 11.0871 8.81251 11.0871 7.31251V6.25001C11.0871 4.46876 9.61833 3.00001 7.83708 3.00001H7.58708ZM9.58708 14C9.58708 14.5313 9.36833 15.0625 8.99333 15.4375C8.61833 15.8125 8.11833 16 7.58708 16C7.05583 16 6.52458 15.8125 6.14958 15.4375C5.77458 15.0625 5.58708 14.5313 5.58708 14H7.58708H9.58708Z" fill="#0F172A"/>
</svg>
