<svg width="16" height="16" viewBox="0 0 16 16" fill="none" xmlns="http://www.w3.org/2000/svg">
<path id="&#239;&#128;&#130;" d="M11.6369 6.62926C11.6369 4.8679 10.671 3.22017 9.13694 2.31108C7.57444 1.4304 5.67103 1.4304 4.13694 2.31108C2.57444 3.22017 1.63694 4.8679 1.63694 6.62926C1.63694 8.41903 2.57444 10.0668 4.13694 10.9759C5.67103 11.8565 7.57444 11.8565 9.13694 10.9759C10.671 10.0668 11.6369 8.41903 11.6369 6.62926ZM10.4722 11.1179C9.44944 12.027 8.0858 12.5384 6.63694 12.5384C3.36989 12.5384 0.727844 9.89631 0.727844 6.62926C0.727844 3.39062 3.36989 0.720169 6.63694 0.720169C9.87557 0.720169 12.546 3.39062 12.546 6.62926C12.546 8.10653 12.0063 9.44176 11.1256 10.4929L15.1313 14.4986C15.3017 14.669 15.3017 14.9815 15.1313 15.152C14.9608 15.3224 14.6483 15.3224 14.4778 15.152L10.4722 11.1179Z" fill="#98A2B3"/>
</svg>
