<svg width="14" height="18" viewBox="0 0 14 18" fill="none" xmlns="http://www.w3.org/2000/svg">
<path id="Pages" d="M12.625 2.25C12.625 1.65234 12.0977 1.125 11.5 1.125H2.5C1.86719 1.125 1.375 1.65234 1.375 2.25V15.75C1.375 16.3828 1.86719 16.875 2.5 16.875H7V12.9375C7 12.0234 7.73828 11.25 8.6875 11.25H12.625V2.25ZM12.5898 12.375H8.6875C8.37109 12.375 8.125 12.6562 8.125 12.9375V16.875C8.19531 16.8398 8.30078 16.8047 8.37109 16.7344L12.4492 12.6562C12.5195 12.5859 12.5547 12.4805 12.5898 12.375ZM0.25 15.75V2.25C0.25 1.01953 1.23438 0 2.5 0H11.5C12.7305 0 13.75 1.01953 13.75 2.25V12.2695C13.75 12.6914 13.5391 13.1484 13.2227 13.4648L9.17969 17.5078C8.86328 17.8242 8.40625 18 7.98438 18H2.5C1.23438 18 0.25 17.0156 0.25 15.75ZM6.82422 2.42578C7.03516 2.63672 7.03516 3.02344 6.82422 3.23438L3.44922 6.60938C3.23828 6.82031 2.85156 6.82031 2.64062 6.60938C2.42969 6.39844 2.42969 6.01172 2.64062 5.80078L6.01562 2.42578C6.22656 2.21484 6.61328 2.21484 6.82422 2.42578ZM10.1992 4.35938L4.57422 9.98438C4.36328 10.1953 3.97656 10.1953 3.76562 9.98438C3.55469 9.77344 3.55469 9.38672 3.76562 9.17578L9.39062 3.55078C9.60156 3.33984 9.98828 3.33984 10.1992 3.55078C10.4102 3.76172 10.4102 4.14844 10.1992 4.35938Z" fill="#0F172A"/>
</svg>
