<svg width="16" height="16" viewBox="0 0 16 16" fill="none" xmlns="http://www.w3.org/2000/svg">
<path id="Pages" d="M3.5 5.73682C4.27344 5.73682 5.01172 5.31494 5.43359 4.61182C5.82031 3.94385 5.82031 3.06494 5.43359 2.36182C5.01172 1.69385 4.27344 1.23682 3.5 1.23682C2.69141 1.23682 1.95312 1.69385 1.53125 2.36182C1.14453 3.06494 1.14453 3.94385 1.53125 4.61182C1.95312 5.31494 2.69141 5.73682 3.5 5.73682ZM6.875 3.48682C6.875 4.71729 6.20703 5.80713 5.1875 6.43994C4.13281 7.0376 2.83203 7.0376 1.8125 6.43994C0.757812 5.80713 0.125 4.71729 0.125 3.48682C0.125 2.2915 0.757812 1.20166 1.8125 0.568848C2.83203 -0.0288086 4.13281 -0.0288086 5.1875 0.568848C6.20703 1.20166 6.875 2.2915 6.875 3.48682ZM3.5 14.7368C4.27344 14.7368 5.01172 14.3149 5.43359 13.6118C5.82031 12.9438 5.82031 12.0649 5.43359 11.3618C5.01172 10.6938 4.27344 10.2368 3.5 10.2368C2.69141 10.2368 1.95312 10.6938 1.53125 11.3618C1.14453 12.0649 1.14453 12.9438 1.53125 13.6118C1.95312 14.3149 2.69141 14.7368 3.5 14.7368ZM6.875 12.4868C6.875 13.7173 6.20703 14.8071 5.1875 15.4399C4.13281 16.0376 2.83203 16.0376 1.8125 15.4399C0.757812 14.8071 0.125 13.7173 0.125 12.4868C0.125 11.2915 0.757812 10.2017 1.8125 9.56885C2.83203 8.97119 4.13281 8.97119 5.1875 9.56885C6.20703 10.2017 6.875 11.2915 6.875 12.4868ZM10.25 3.48682C10.25 4.29541 10.6719 5.03369 11.375 5.45557C12.043 5.84229 12.9219 5.84229 13.625 5.45557C14.293 5.03369 14.75 4.29541 14.75 3.48682C14.75 2.71338 14.293 1.9751 13.625 1.55322C12.9219 1.1665 12.043 1.1665 11.375 1.55322C10.6719 1.9751 10.25 2.71338 10.25 3.48682ZM12.5 6.86182C11.2695 6.86182 10.1797 6.229 9.54688 5.17432C8.94922 4.15479 8.94922 2.854 9.54688 1.79932C10.1797 0.779785 11.2695 0.111816 12.5 0.111816C13.6953 0.111816 14.7852 0.779785 15.418 1.79932C16.0156 2.854 16.0156 4.15479 15.418 5.17432C14.7852 6.229 13.6953 6.86182 12.5 6.86182ZM12.5 14.7368C13.2734 14.7368 14.0117 14.3149 14.4336 13.6118C14.8203 12.9438 14.8203 12.0649 14.4336 11.3618C14.0117 10.6938 13.2734 10.2368 12.5 10.2368C11.6914 10.2368 10.9531 10.6938 10.5312 11.3618C10.1445 12.0649 10.1445 12.9438 10.5312 13.6118C10.9531 14.3149 11.6914 14.7368 12.5 14.7368ZM15.875 12.4868C15.875 13.7173 15.207 14.8071 14.1875 15.4399C13.1328 16.0376 11.832 16.0376 10.8125 15.4399C9.75781 14.8071 9.125 13.7173 9.125 12.4868C9.125 11.2915 9.75781 10.2017 10.8125 9.56885C11.832 8.97119 13.1328 8.97119 14.1875 9.56885C15.207 10.2017 15.875 11.2915 15.875 12.4868Z" fill="#0F172A"/>
</svg>
