<svg width="18" height="16" viewBox="0 0 18 16" fill="none" xmlns="http://www.w3.org/2000/svg">
<path id="Pages" d="M1.125 13.625C1.125 14.2578 1.61719 14.75 2.25 14.75H15.75C16.3477 14.75 16.875 14.2578 16.875 13.625V10.5312C16.875 10.4609 16.8398 10.3555 16.8398 10.2852V10.25H13.2539L12.4453 11.9023C12.2695 12.2891 11.8828 12.5 11.4609 12.5H6.50391C6.08203 12.5 5.69531 12.2891 5.51953 11.9023L4.71094 10.25H1.16016V10.2852C1.125 10.3555 1.125 10.4609 1.125 10.5312V13.625ZM16.5586 9.125L14.8008 2.12891C14.6602 1.60156 14.2031 1.25 13.7109 1.25H4.28906C3.76172 1.25 3.30469 1.60156 3.16406 2.12891L1.44141 9.125H4.71094C5.13281 9.125 5.51953 9.37109 5.69531 9.75781L6.50391 11.375H11.4609L12.2695 9.75781C12.4453 9.37109 12.832 9.125 13.2539 9.125H16.5586ZM0 10.5312C0 10.3555 0 10.1797 0.0351562 10.0039L2.07422 1.84766C2.35547 0.828125 3.23438 0.125 4.28906 0.125H13.7109C14.7305 0.125 15.6445 0.828125 15.8906 1.84766L17.9297 10.0039C17.9648 10.1797 18 10.3555 18 10.5312V13.625C18 14.8906 16.9805 15.875 15.75 15.875H2.25C0.984375 15.875 0 14.8906 0 13.625V10.5312Z" fill="#0F172A"/>
</svg>
