<svg width="18" height="18" viewBox="0 0 18 18" fill="none" xmlns="http://www.w3.org/2000/svg">
<path id="Pages" d="M5.625 2.25V3.9375H12.375V2.25C12.375 1.96875 12.0938 1.6875 11.8125 1.6875H6.1875C5.87109 1.6875 5.625 1.96875 5.625 2.25ZM4.5 3.9375V2.25C4.5 1.33594 5.23828 0.5625 6.1875 0.5625H11.8125C12.7266 0.5625 13.5 1.33594 13.5 2.25V3.9375H15.75C16.9805 3.9375 18 4.95703 18 6.1875V15.1875C18 16.4531 16.9805 17.4375 15.75 17.4375H2.25C0.984375 17.4375 0 16.4531 0 15.1875V6.1875C0 4.95703 0.984375 3.9375 2.25 3.9375H4.5ZM12.9375 5.0625H5.0625H2.25C1.61719 5.0625 1.125 5.58984 1.125 6.1875V15.1875C1.125 15.8203 1.61719 16.3125 2.25 16.3125H15.75C16.3477 16.3125 16.875 15.8203 16.875 15.1875V6.1875C16.875 5.58984 16.3477 5.0625 15.75 5.0625H12.9375Z" fill="#0F172A"/>
</svg>
