<svg width="16" height="18" viewBox="0 0 16 18" fill="none" xmlns="http://www.w3.org/2000/svg">
<path id="Pages" d="M4.0625 0C4.34375 0 4.625 0.28125 4.625 0.5625V2.25H11.375V0.5625C11.375 0.28125 11.6211 0 11.9375 0C12.2188 0 12.5 0.28125 12.5 0.5625V2.25H13.625C14.8555 2.25 15.875 3.26953 15.875 4.5V5.625V6.75V15.75C15.875 17.0156 14.8555 18 13.625 18H2.375C1.10938 18 0.125 17.0156 0.125 15.75V6.75V5.625V4.5C0.125 3.26953 1.10938 2.25 2.375 2.25H3.5V0.5625C3.5 0.28125 3.74609 0 4.0625 0ZM14.75 6.75H1.25V15.75C1.25 16.3828 1.74219 16.875 2.375 16.875H13.625C14.2227 16.875 14.75 16.3828 14.75 15.75V6.75ZM13.625 3.375H2.375C1.74219 3.375 1.25 3.90234 1.25 4.5V5.625H14.75V4.5C14.75 3.90234 14.2227 3.375 13.625 3.375Z" fill="#0F172A"/>
</svg>
