<svg width="14" height="18" viewBox="0 0 14 18" fill="none" xmlns="http://www.w3.org/2000/svg">
<path id="Pages" d="M5.34766 2.39062C5.27734 2.67188 5.06641 2.8125 4.82031 2.8125H4.1875C3.87109 2.8125 3.625 3.09375 3.625 3.375V4.5H7H10.375V3.375C10.375 3.09375 10.0938 2.8125 9.8125 2.8125H9.17969C8.89844 2.8125 8.6875 2.67188 8.61719 2.39062C8.44141 1.6875 7.77344 1.125 7 1.125C6.19141 1.125 5.52344 1.6875 5.34766 2.39062ZM7 0C8.125 0 9.14453 0.703125 9.56641 1.6875H9.8125C10.5156 1.6875 11.1484 2.17969 11.3945 2.8125H11.5C12.7305 2.8125 13.75 3.83203 13.75 5.0625V15.75C13.75 17.0156 12.7305 18 11.5 18H2.5C1.23438 18 0.25 17.0156 0.25 15.75V5.0625C0.25 3.83203 1.23438 2.8125 2.5 2.8125H2.57031C2.81641 2.17969 3.44922 1.6875 4.1875 1.6875H4.39844C4.85547 0.703125 5.83984 0 7 0ZM11.5 3.9375V4.5C11.5 5.13281 10.9727 5.625 10.375 5.625H7H3.625C2.99219 5.625 2.5 5.13281 2.5 4.5V3.9375C1.86719 3.9375 1.375 4.46484 1.375 5.0625V15.75C1.375 16.3828 1.86719 16.875 2.5 16.875H11.5C12.0977 16.875 12.625 16.3828 12.625 15.75V5.0625C12.625 4.46484 12.0977 3.9375 11.5 3.9375ZM7.5625 2.8125C7.5625 3.12891 7.28125 3.375 7 3.375C6.68359 3.375 6.4375 3.12891 6.4375 2.8125C6.4375 2.53125 6.68359 2.25 7 2.25C7.28125 2.25 7.5625 2.53125 7.5625 2.8125ZM3.90625 8.22656C4.15234 7.38281 4.92578 6.75 5.80469 6.75H7.84375C9.07422 6.75 10.0938 7.76953 10.0938 9.03516C10.0938 9.87891 9.60156 10.6523 8.86328 11.0391L7.5625 11.707V12.375C7.5625 12.6914 7.28125 12.9375 7 12.9375C6.68359 12.9375 6.4375 12.6914 6.4375 12.375V11.3555C6.4375 11.1445 6.54297 10.9688 6.71875 10.8633L8.33594 10.0195C8.72266 9.84375 8.96875 9.45703 8.96875 9.03516C8.96875 8.40234 8.44141 7.875 7.84375 7.875H5.80469C5.41797 7.875 5.10156 8.15625 4.99609 8.50781V8.54297C4.92578 8.85938 4.60938 9.03516 4.29297 8.92969C4.01172 8.85938 3.83594 8.54297 3.90625 8.26172V8.22656ZM7.84375 14.625C7.84375 15.1172 7.45703 15.4688 7 15.4688C6.50781 15.4688 6.15625 15.1172 6.15625 14.625C6.15625 14.168 6.50781 13.7812 7 13.7812C7.45703 13.7812 7.84375 14.168 7.84375 14.625Z" fill="#0F172A"/>
</svg>
