<svg width="18" height="16" viewBox="0 0 18 16" fill="none" xmlns="http://www.w3.org/2000/svg">
<path id="Pages" d="M1.40625 2.9375H2.53125V1.8125H1.40625V2.9375ZM0.28125 1.53125C0.28125 1.07422 0.632812 0.6875 1.125 0.6875H2.8125C3.26953 0.6875 3.65625 1.07422 3.65625 1.53125V3.21875C3.65625 3.71094 3.26953 4.0625 2.8125 4.0625H1.125C0.632812 4.0625 0.28125 3.71094 0.28125 3.21875V1.53125ZM5.90625 1.8125H17.1562C17.4375 1.8125 17.7188 2.09375 17.7188 2.375C17.7188 2.69141 17.4375 2.9375 17.1562 2.9375H5.90625C5.58984 2.9375 5.34375 2.69141 5.34375 2.375C5.34375 2.09375 5.58984 1.8125 5.90625 1.8125ZM5.90625 7.4375H17.1562C17.4375 7.4375 17.7188 7.71875 17.7188 8C17.7188 8.31641 17.4375 8.5625 17.1562 8.5625H5.90625C5.58984 8.5625 5.34375 8.31641 5.34375 8C5.34375 7.71875 5.58984 7.4375 5.90625 7.4375ZM5.90625 13.0625H17.1562C17.4375 13.0625 17.7188 13.3438 17.7188 13.625C17.7188 13.9414 17.4375 14.1875 17.1562 14.1875H5.90625C5.58984 14.1875 5.34375 13.9414 5.34375 13.625C5.34375 13.3438 5.58984 13.0625 5.90625 13.0625ZM1.40625 7.4375V8.5625H2.53125V7.4375H1.40625ZM1.125 6.3125H2.8125C3.26953 6.3125 3.65625 6.69922 3.65625 7.15625V8.84375C3.65625 9.33594 3.26953 9.6875 2.8125 9.6875H1.125C0.632812 9.6875 0.28125 9.33594 0.28125 8.84375V7.15625C0.28125 6.69922 0.632812 6.3125 1.125 6.3125ZM1.40625 14.1875H2.53125V13.0625H1.40625V14.1875ZM0.28125 12.7812C0.28125 12.3242 0.632812 11.9375 1.125 11.9375H2.8125C3.26953 11.9375 3.65625 12.3242 3.65625 12.7812V14.4688C3.65625 14.9609 3.26953 15.3125 2.8125 15.3125H1.125C0.632812 15.3125 0.28125 14.9609 0.28125 14.4688V12.7812Z" fill="#0F172A"/>
</svg>
